<svg xmlns="http://www.w3.org/2000/svg" viewBox="0 0 512 512">
  <path d="M511.344,274.266C511.77,268.231,512,262.143,512,256C512,114.615,397.385,0,256,0S0,114.615,0,256
    c0,117.769,79.53,216.949,187.809,246.801L511.344,274.266z" fill="#0076CF"/>
  <path d="M511.344,274.266L314.991,77.913L119.096,434.087l68.714,68.714C209.522,508.787,232.385,512,256,512
    C391.243,512,501.976,407.125,511.344,274.266z" fill="#00477D"/>
  <polygon points="278.328,333.913 255.711,77.913 119.096,77.913 119.096,311.652" fill="#fff"/>
  <polygon points="392.904,311.652 392.904,155.826 337.252,133.565 314.991,77.913 255.711,77.913 256.067,333.913" fill="#E8E6E6"/>
  <polygon points="314.991,155.826 314.991,77.913 392.904,155.826" fill="#fff"/>
  <rect x="119.096" y="311.652" width="273.809" height="122.435" fill="#3CA8FA"/>
  <path d="M244.8,399.362h-13.6l-3.8-10.5h-19.4l-3.8,10.5h-13.2l20.3-52.975h13.4l20.1,52.975z
    M224.5,378.3l-6.5-18.8h-0.2l-6.5,18.8h13.2z" fill="#fff"/>
  <path d="M272.8,399.362h-13.5v-52.975h13.5z" fill="#fff"/>
</svg>
